# xmcd CD database file
#
# Track frame offsets:
#	150
#	12638
#	25095
#	37933
#	52020
#	66565
#	80320
#	91425
#	104110
#	117768
#
# Disc length: 1721 seconds
#
# Revision: 0
# Processed by: cddbd v1.4PL0 Copyright (c) Steve Scherf et al.
# Submitted via: CDex 1.50beta9
#
DISCID=8406b70a
DTITLE=Celia Cruz - A Todo Mis Amigos
DYEAR=1978
DGENRE=Salsa
TTITLE0=La Guarachera
TTITLE1=Bomboro Quina
TTITLE2=Oye Mi Consejo
TTITLE3=Mi Treque, Treque
TTITLE4=Tatalibaba
TTITLE5=A Todos Mis Amigos
TTITLE6=Cuando Estoy Contigo
TTITLE7=Son con Guaguanco
TTITLE8=Cuando Sali de Cuba
TTITLE9=Yo Soy la Voz
EXTD=YEAR: 1978
EXTT0=
EXTT1=
EXTT2=
EXTT3=
EXTT4=
EXTT5=
EXTT6=
EXTT7=
EXTT8=
EXTT9=
PLAYORDER=
